<svg width="24" height="24" viewBox="0 0 24 24" fill="none" xmlns="http://www.w3.org/2000/svg">
<path d="M11.8875 13.3317C12.6235 13.3317 13.2201 12.735 13.2201 11.9991C13.2201 11.2631 12.6235 10.6665 11.8875 10.6665C11.1516 10.6665 10.5549 11.2631 10.5549 11.9991C10.5549 12.735 11.1516 13.3317 11.8875 13.3317Z" fill="#A6ACC3"/>
<path d="M14.8104 17.4362L13.6643 16.2457L13.6022 16.1835L12.4739 15.0553C12.2948 15.0866 12.1137 15.1045 11.932 15.1086C11.5199 15.1145 11.1108 15.0384 10.7284 14.8848C10.346 14.7311 9.99796 14.503 9.70451 14.2137C9.41105 13.9244 9.17803 13.5796 9.019 13.1994C8.85997 12.8193 8.77809 12.4113 8.77814 11.9992C8.78226 11.8174 8.80008 11.6363 8.83144 11.4572L7.05464 9.68045L5.66873 8.33008C4.66602 9.27487 3.80701 10.3613 3.11902 11.555C3.04105 11.69 3 11.8432 3 11.9992C3 12.1551 3.04105 12.3083 3.11902 12.4434C3.67872 13.4117 6.67263 18.218 11.9053 18.218H12.1274C13.1114 18.1888 14.0826 17.9873 14.9969 17.6228L14.8104 17.4362Z" fill="#A6ACC3"/>
<path d="M8.85809 6.45534L11.3456 8.94286C11.5247 8.9115 11.7058 8.89368 11.8875 8.88956C12.7122 8.88956 13.5031 9.21716 14.0862 9.80028C14.6693 10.3834 14.9969 11.1743 14.9969 11.999C14.9928 12.1807 14.975 12.3618 14.9436 12.5409L17.3246 14.9218L18.0708 15.6681C19.0861 14.7258 19.9572 13.6391 20.6561 12.4432C20.734 12.3081 20.7751 12.1549 20.7751 11.999C20.7751 11.843 20.734 11.6898 20.6561 11.5548C20.0875 10.5686 16.9603 5.62025 11.6477 5.78016C10.6637 5.80934 9.69251 6.0108 8.77814 6.37539L8.85809 6.45534Z" fill="#A6ACC3"/>
<path d="M19.6255 18.4757L18.4706 17.3296L16.6938 15.5528L8.23622 7.08639L6.93027 5.78044L5.41111 4.26127C5.32827 4.17844 5.22994 4.11273 5.12171 4.0679C5.01348 4.02307 4.89749 4 4.78034 4C4.6632 4 4.5472 4.02307 4.43897 4.0679C4.33075 4.11273 4.23241 4.17844 4.14958 4.26127C3.98229 4.42856 3.88831 4.65545 3.88831 4.89204C3.88831 5.12862 3.98229 5.35551 4.14958 5.5228L6.1396 7.55724L7.6943 9.06752L14.1885 15.5528L14.2507 15.615L15.4412 16.8055L15.9653 17.3296L18.364 19.7372C18.4466 19.8205 18.5448 19.8866 18.6531 19.9317C18.7614 19.9768 18.8775 20 18.9948 20C19.112 20 19.2282 19.9768 19.3364 19.9317C19.4447 19.8866 19.5429 19.8205 19.6255 19.7372C19.7088 19.6546 19.7749 19.5564 19.82 19.4481C19.8651 19.3398 19.8883 19.2237 19.8883 19.1064C19.8883 18.9892 19.8651 18.873 19.82 18.7648C19.7749 18.6565 19.7088 18.5583 19.6255 18.4757Z" fill="#A6ACC3"/>
</svg>
