<svg width="315" height="44" viewBox="0 0 315 44" fill="none" xmlns="http://www.w3.org/2000/svg">
<rect width="315" height="44" rx="3" fill="#4A6EA8"/>
<path d="M0 3C0 1.34315 1.34315 0 3 0H44V44H3C1.34315 44 0 42.6569 0 41V3Z" fill="#395185"/>
<path d="M76.8359 23.8281C76.9219 25.9062 78.625 27.1875 81.2188 27.1875C83.9453 27.1875 85.6641 25.8438 85.6641 23.7031C85.6641 22.0234 84.6953 21.0781 82.4062 20.5547L81.1094 20.2578C79.7266 19.9297 79.1562 19.4922 79.1562 18.7422C79.1562 17.8047 80.0156 17.1797 81.2891 17.1797C82.5781 17.1797 83.4609 17.8125 83.5547 18.8672H85.4766C85.4297 16.8828 83.7891 15.5391 81.3047 15.5391C78.8516 15.5391 77.1094 16.8906 77.1094 18.8906C77.1094 20.5 78.0938 21.5 80.1719 21.9766L81.6328 22.3203C83.0547 22.6562 83.6328 23.125 83.6328 23.9375C83.6328 24.875 82.6875 25.5469 81.3281 25.5469C79.9531 25.5469 78.9141 24.8672 78.7891 23.8281H76.8359ZM87.0391 27H88.9844V18.7188H87.0391V27ZM88.0078 17.6328C88.6172 17.6328 89.0938 17.1641 89.0938 16.5781C89.0938 15.9844 88.6172 15.5156 88.0078 15.5156C87.4062 15.5156 86.9297 15.9844 86.9297 16.5781C86.9297 17.1641 87.4062 17.6328 88.0078 17.6328ZM94.2734 25.4609C93.0469 25.4609 92.2656 24.4766 92.2656 22.8359C92.2656 21.2109 93.0469 20.1797 94.2734 20.1797C95.5156 20.1797 96.3203 21.2266 96.3203 22.8359C96.3203 24.4531 95.5156 25.4609 94.2734 25.4609ZM94.2656 30.125C96.6797 30.125 98.2656 28.8438 98.2656 26.8672V18.7188H96.3594V20.1406H96.3281C95.8516 19.1875 94.8984 18.5781 93.7188 18.5781C91.6016 18.5781 90.2734 20.2109 90.2734 22.8281C90.2734 25.4062 91.6328 27.0078 93.6797 27.0078C94.8672 27.0078 95.8438 26.4141 96.2734 25.5234H96.3203V26.9219C96.3203 27.9766 95.5938 28.6875 94.3281 28.6875C93.4062 28.6875 92.6953 28.2578 92.4844 27.625H90.5547C90.75 29.0781 92.2188 30.125 94.2656 30.125ZM99.8516 27H101.797V22.2031C101.797 21.0156 102.508 20.2109 103.625 20.2109C104.734 20.2109 105.281 20.8672 105.281 22.0391V27H107.227V21.6484C107.227 19.7344 106.188 18.5625 104.359 18.5625C103.086 18.5625 102.203 19.1562 101.758 20.1406H101.719V18.7188H99.8516V27ZM114.203 15.7266H112.188V23.0234C112.188 25.4844 113.969 27.1875 116.82 27.1875C119.68 27.1875 121.453 25.4844 121.453 23.0234V15.7266H119.445V22.8438C119.445 24.3828 118.492 25.4297 116.82 25.4297C115.148 25.4297 114.203 24.3828 114.203 22.8438V15.7266ZM127.805 18.5781C126.602 18.5781 125.664 19.1875 125.195 20.1484H125.156V18.7188H123.258V29.7266H125.203V25.625H125.242C125.695 26.5547 126.633 27.1328 127.836 27.1328C129.914 27.1328 131.242 25.5 131.242 22.8594C131.242 20.2109 129.906 18.5781 127.805 18.5781ZM127.211 25.5391C126 25.5391 125.195 24.4844 125.188 22.8594C125.195 21.25 126 20.1797 127.211 20.1797C128.469 20.1797 129.25 21.2266 129.25 22.8594C129.25 24.5 128.469 25.5391 127.211 25.5391ZM146.93 18.7188H145.008L143.609 25.0781H143.562L141.945 18.7188H140.078L138.461 25.0781H138.422L137.023 18.7188H135.07L137.312 27H139.344L140.969 20.9453H141.008L142.641 27H144.688L146.93 18.7188ZM147.945 27H149.891V18.7188H147.945V27ZM148.914 17.6328C149.523 17.6328 150 17.1641 150 16.5781C150 15.9844 149.523 15.5156 148.914 15.5156C148.312 15.5156 147.836 15.9844 147.836 16.5781C147.836 17.1641 148.312 17.6328 148.914 17.6328ZM152.062 16.7812V18.7188H150.875V20.2188H152.062V24.7969C152.062 26.4062 152.766 27.0391 154.555 27.0391C154.969 27.0391 155.352 27.0078 155.562 26.9609V25.4766C155.438 25.5 155.188 25.5156 155.008 25.5156C154.32 25.5156 154.008 25.2031 154.008 24.5234V20.2188H155.57V18.7188H154.008V16.7812H152.062ZM156.953 27H158.898V22.2422C158.898 21.0234 159.609 20.2109 160.781 20.2109C161.906 20.2109 162.484 20.9062 162.484 22.0625V27H164.43V21.6641C164.43 19.7656 163.359 18.5625 161.531 18.5625C160.273 18.5625 159.359 19.1328 158.914 20.1406H158.875V15.7266H156.953V27ZM171.406 27V22.3984H176.133V20.7578H171.406V17.4297H176.578V15.7266H169.391V27H171.406ZM180.453 25.6641C179.609 25.6641 179.047 25.2344 179.047 24.5547C179.047 23.8984 179.586 23.4766 180.523 23.4141L182.438 23.2969V23.9297C182.438 24.9297 181.555 25.6641 180.453 25.6641ZM179.867 27.1328C180.93 27.1328 181.969 26.5781 182.445 25.6797H182.484V27H184.359V21.2969C184.359 19.6328 183.023 18.5469 180.969 18.5469C178.859 18.5469 177.539 19.6562 177.453 21.2031H179.258C179.383 20.5156 179.969 20.0703 180.891 20.0703C181.852 20.0703 182.438 20.5703 182.438 21.4375V22.0312L180.25 22.1562C178.234 22.2812 177.102 23.1641 177.102 24.6328C177.102 26.125 178.266 27.1328 179.867 27.1328ZM193.227 21.6719C193.094 19.9297 191.742 18.5469 189.555 18.5469C187.148 18.5469 185.586 20.2109 185.586 22.8594C185.586 25.5469 187.148 27.1641 189.57 27.1641C191.648 27.1641 193.078 25.9453 193.234 24.0938H191.398C191.219 25.0312 190.578 25.5938 189.594 25.5938C188.359 25.5938 187.562 24.5938 187.562 22.8594C187.562 21.1562 188.352 20.125 189.578 20.125C190.617 20.125 191.234 20.7891 191.391 21.6719H193.227ZM197.969 20.0547C199.086 20.0547 199.836 20.875 199.875 22.0469H196.008C196.086 20.8906 196.875 20.0547 197.969 20.0547ZM199.883 24.5234C199.672 25.2109 198.984 25.6641 198.078 25.6641C196.805 25.6641 195.992 24.7734 195.992 23.4453V23.3281H201.781V22.6953C201.781 20.1797 200.312 18.5469 197.961 18.5469C195.57 18.5469 194.055 20.2734 194.055 22.8906C194.055 25.5312 195.555 27.1641 198.039 27.1641C200 27.1641 201.453 26.0859 201.703 24.5234H199.883ZM207.672 27.1328C209.766 27.1328 211.086 25.5078 211.086 22.8594C211.086 20.2109 209.758 18.5781 207.672 18.5781C206.5 18.5781 205.555 19.1719 205.086 20.1406H205.039V15.7266H203.094V27H205V25.5859H205.039C205.523 26.5469 206.453 27.1328 207.672 27.1328ZM207.07 20.1797C208.312 20.1797 209.094 21.2188 209.094 22.8594C209.094 24.5078 208.32 25.5391 207.07 25.5391C205.867 25.5391 205.031 24.4844 205.031 22.8594C205.031 21.25 205.867 20.1797 207.07 20.1797ZM216.016 27.1641C218.445 27.1641 220.023 25.5469 220.023 22.8594C220.023 20.1797 218.43 18.5469 216.016 18.5469C213.602 18.5469 212.008 20.1875 212.008 22.8594C212.008 25.5469 213.586 27.1641 216.016 27.1641ZM216.016 25.625C214.781 25.625 213.984 24.625 213.984 22.8594C213.984 21.1016 214.789 20.0938 216.016 20.0938C217.25 20.0938 218.047 21.1016 218.047 22.8594C218.047 24.625 217.25 25.625 216.016 25.625ZM224.938 27.1641C227.367 27.1641 228.945 25.5469 228.945 22.8594C228.945 20.1797 227.352 18.5469 224.938 18.5469C222.523 18.5469 220.93 20.1875 220.93 22.8594C220.93 25.5469 222.508 27.1641 224.938 27.1641ZM224.938 25.625C223.703 25.625 222.906 24.625 222.906 22.8594C222.906 21.1016 223.711 20.0938 224.938 20.0938C226.172 20.0938 226.969 21.1016 226.969 22.8594C226.969 24.625 226.172 25.625 224.938 25.625ZM232.219 22.1719H232.195V15.7266H230.25V27H232.195V24.125L232.852 23.4609L235.469 27H237.719L234.266 22.2812L237.578 18.7188H235.336L232.219 22.1719Z" fill="white"/>
<path d="M23.798 31.9998V22.8373H26.8522L27.3448 19.2905H23.798V17.0244C23.798 16.0392 24.0936 15.251 25.5714 15.251H27.4433V12.0983C27.1478 12.0983 25.9655 11.9998 24.6847 11.9998C21.9261 11.9998 20.0542 13.6747 20.0542 16.7289V19.389H17V22.9358H20.0542V31.9998H23.798Z" fill="white"/>
</svg>
