<svg width="317" height="46" viewBox="0 0 317 46" fill="none" xmlns="http://www.w3.org/2000/svg">
<rect x="1" y="1" width="315" height="44" rx="3" fill="white" stroke="#E4E6EB"/>
<line y1="-0.5" x2="44.0114" y2="-0.5" transform="matrix(-0.0227214 0.999742 -1 0 46 1)" stroke="#E4E6EB"/>
<path d="M87.5391 24.8281C87.625 26.9062 89.3281 28.1875 91.9219 28.1875C94.6484 28.1875 96.3672 26.8438 96.3672 24.7031C96.3672 23.0234 95.3984 22.0781 93.1094 21.5547L91.8125 21.2578C90.4297 20.9297 89.8594 20.4922 89.8594 19.7422C89.8594 18.8047 90.7188 18.1797 91.9922 18.1797C93.2812 18.1797 94.1641 18.8125 94.2578 19.8672H96.1797C96.1328 17.8828 94.4922 16.5391 92.0078 16.5391C89.5547 16.5391 87.8125 17.8906 87.8125 19.8906C87.8125 21.5 88.7969 22.5 90.875 22.9766L92.3359 23.3203C93.7578 23.6562 94.3359 24.125 94.3359 24.9375C94.3359 25.875 93.3906 26.5469 92.0312 26.5469C90.6562 26.5469 89.6172 25.8672 89.4922 24.8281H87.5391ZM97.7422 28H99.6875V19.7188H97.7422V28ZM98.7109 18.6328C99.3203 18.6328 99.7969 18.1641 99.7969 17.5781C99.7969 16.9844 99.3203 16.5156 98.7109 16.5156C98.1094 16.5156 97.6328 16.9844 97.6328 17.5781C97.6328 18.1641 98.1094 18.6328 98.7109 18.6328ZM104.977 26.4609C103.75 26.4609 102.969 25.4766 102.969 23.8359C102.969 22.2109 103.75 21.1797 104.977 21.1797C106.219 21.1797 107.023 22.2266 107.023 23.8359C107.023 25.4531 106.219 26.4609 104.977 26.4609ZM104.969 31.125C107.383 31.125 108.969 29.8438 108.969 27.8672V19.7188H107.062V21.1406H107.031C106.555 20.1875 105.602 19.5781 104.422 19.5781C102.305 19.5781 100.977 21.2109 100.977 23.8281C100.977 26.4062 102.336 28.0078 104.383 28.0078C105.57 28.0078 106.547 27.4141 106.977 26.5234H107.023V27.9219C107.023 28.9766 106.297 29.6875 105.031 29.6875C104.109 29.6875 103.398 29.2578 103.188 28.625H101.258C101.453 30.0781 102.922 31.125 104.969 31.125ZM110.555 28H112.5V23.2031C112.5 22.0156 113.211 21.2109 114.328 21.2109C115.438 21.2109 115.984 21.8672 115.984 23.0391V28H117.93V22.6484C117.93 20.7344 116.891 19.5625 115.062 19.5625C113.789 19.5625 112.906 20.1562 112.461 21.1406H112.422V19.7188H110.555V28ZM124.906 16.7266H122.891V24.0234C122.891 26.4844 124.672 28.1875 127.523 28.1875C130.383 28.1875 132.156 26.4844 132.156 24.0234V16.7266H130.148V23.8438C130.148 25.3828 129.195 26.4297 127.523 26.4297C125.852 26.4297 124.906 25.3828 124.906 23.8438V16.7266ZM138.508 19.5781C137.305 19.5781 136.367 20.1875 135.898 21.1484H135.859V19.7188H133.961V30.7266H135.906V26.625H135.945C136.398 27.5547 137.336 28.1328 138.539 28.1328C140.617 28.1328 141.945 26.5 141.945 23.8594C141.945 21.2109 140.609 19.5781 138.508 19.5781ZM137.914 26.5391C136.703 26.5391 135.898 25.4844 135.891 23.8594C135.898 22.25 136.703 21.1797 137.914 21.1797C139.172 21.1797 139.953 22.2266 139.953 23.8594C139.953 25.5 139.172 26.5391 137.914 26.5391ZM157.633 19.7188H155.711L154.312 26.0781H154.266L152.648 19.7188H150.781L149.164 26.0781H149.125L147.727 19.7188H145.773L148.016 28H150.047L151.672 21.9453H151.711L153.344 28H155.391L157.633 19.7188ZM158.648 28H160.594V19.7188H158.648V28ZM159.617 18.6328C160.227 18.6328 160.703 18.1641 160.703 17.5781C160.703 16.9844 160.227 16.5156 159.617 16.5156C159.016 16.5156 158.539 16.9844 158.539 17.5781C158.539 18.1641 159.016 18.6328 159.617 18.6328ZM162.766 17.7812V19.7188H161.578V21.2188H162.766V25.7969C162.766 27.4062 163.469 28.0391 165.258 28.0391C165.672 28.0391 166.055 28.0078 166.266 27.9609V26.4766C166.141 26.5 165.891 26.5156 165.711 26.5156C165.023 26.5156 164.711 26.2031 164.711 25.5234V21.2188H166.273V19.7188H164.711V17.7812H162.766ZM167.656 28H169.602V23.2422C169.602 22.0234 170.312 21.2109 171.484 21.2109C172.609 21.2109 173.188 21.9062 173.188 23.0625V28H175.133V22.6641C175.133 20.7656 174.062 19.5625 172.234 19.5625C170.977 19.5625 170.062 20.1328 169.617 21.1406H169.578V16.7266H167.656V28ZM189.961 23.2969V22.0938H185.273V23.6328H187.992L187.984 23.8203C187.953 25.3984 186.773 26.4766 185.07 26.4766C183.039 26.4766 181.773 24.8906 181.773 22.2969C181.773 19.7578 182.984 18.25 185.016 18.25C186.398 18.25 187.445 19.0156 187.828 20.3125H189.875C189.508 18.0547 187.57 16.5391 185.008 16.5391C181.75 16.5391 179.711 18.7422 179.711 22.3203C179.711 25.9531 181.758 28.1875 185.047 28.1875C188.133 28.1875 189.961 26.3516 189.961 23.2969ZM195.078 28.1641C197.508 28.1641 199.086 26.5469 199.086 23.8594C199.086 21.1797 197.492 19.5469 195.078 19.5469C192.664 19.5469 191.07 21.1875 191.07 23.8594C191.07 26.5469 192.648 28.1641 195.078 28.1641ZM195.078 26.625C193.844 26.625 193.047 25.625 193.047 23.8594C193.047 22.1016 193.852 21.0938 195.078 21.0938C196.312 21.0938 197.109 22.1016 197.109 23.8594C197.109 25.625 196.312 26.625 195.078 26.625ZM204 28.1641C206.43 28.1641 208.008 26.5469 208.008 23.8594C208.008 21.1797 206.414 19.5469 204 19.5469C201.586 19.5469 199.992 21.1875 199.992 23.8594C199.992 26.5469 201.57 28.1641 204 28.1641ZM204 26.625C202.766 26.625 201.969 25.625 201.969 23.8594C201.969 22.1016 202.773 21.0938 204 21.0938C205.234 21.0938 206.031 22.1016 206.031 23.8594C206.031 25.625 205.234 26.625 204 26.625ZM212.914 26.4609C211.688 26.4609 210.906 25.4766 210.906 23.8359C210.906 22.2109 211.688 21.1797 212.914 21.1797C214.156 21.1797 214.961 22.2266 214.961 23.8359C214.961 25.4531 214.156 26.4609 212.914 26.4609ZM212.906 31.125C215.32 31.125 216.906 29.8438 216.906 27.8672V19.7188H215V21.1406H214.969C214.492 20.1875 213.539 19.5781 212.359 19.5781C210.242 19.5781 208.914 21.2109 208.914 23.8281C208.914 26.4062 210.273 28.0078 212.32 28.0078C213.508 28.0078 214.484 27.4141 214.914 26.5234H214.961V27.9219C214.961 28.9766 214.234 29.6875 212.969 29.6875C212.047 29.6875 211.336 29.2578 211.125 28.625H209.195C209.391 30.0781 210.859 31.125 212.906 31.125ZM218.547 28H220.492V16.7266H218.547V28ZM225.719 21.0547C226.836 21.0547 227.586 21.875 227.625 23.0469H223.758C223.836 21.8906 224.625 21.0547 225.719 21.0547ZM227.633 25.5234C227.422 26.2109 226.734 26.6641 225.828 26.6641C224.555 26.6641 223.742 25.7734 223.742 24.4453V24.3281H229.531V23.6953C229.531 21.1797 228.062 19.5469 225.711 19.5469C223.32 19.5469 221.805 21.2734 221.805 23.8906C221.805 26.5312 223.305 28.1641 225.789 28.1641C227.75 28.1641 229.203 27.0859 229.453 25.5234H227.633Z" fill="#878FAD"/>
<path d="M31.64 23.2003C31.64 22.4603 31.58 21.9203 31.45 21.3603H23V24.7003H27.96C27.86 25.5303 27.32 26.7803 26.12 27.6202L26.1032 27.7321L28.7749 29.8018L28.96 29.8203C30.66 28.2503 31.64 25.9403 31.64 23.2003Z" fill="#4285F4"/>
<path d="M23 31.9998C25.43 31.9998 27.47 31.1997 28.96 29.8198L26.12 27.6197C25.36 28.1497 24.34 28.5197 23 28.5197C20.6201 28.5197 18.6001 26.9498 17.88 24.7798L17.7745 24.7887L14.9964 26.9388L14.96 27.0397C16.44 29.9797 19.48 31.9998 23 31.9998Z" fill="#34A853"/>
<path d="M17.88 24.7802C17.69 24.2202 17.58 23.6202 17.58 23.0002C17.58 22.3802 17.69 21.7802 17.87 21.2202L17.8649 21.1009L15.052 18.9164L14.96 18.9602C14.35 20.1802 14 21.5502 14 23.0002C14 24.4502 14.35 25.8201 14.96 27.0402L17.88 24.7802Z" fill="#FBBC05"/>
<path d="M23 17.48C24.69 17.48 25.83 18.21 26.48 18.82L29.02 16.34C27.4601 14.89 25.43 14 23 14C19.48 14 16.44 16.02 14.96 18.96L17.87 21.22C18.6001 19.05 20.6201 17.48 23 17.48Z" fill="#EB4335"/>
</svg>
